<svg width="27" height="27" viewBox="0 0 27 27" fill="none" xmlns="http://www.w3.org/2000/svg">
<path d="M26.52 13.2595C26.52 20.5915 20.592 26.5195 13.26 26.5195C5.928 26.5195 -2.59121e-07 20.5915 -5.79613e-07 13.2595C-9.00105e-07 5.92753 5.928 -0.000469467 13.26 -0.000469787C20.592 -0.000470108 26.52 5.92753 26.52 13.2595ZM1.56 13.2595C1.56 19.7335 6.786 24.9595 13.26 24.9595C19.734 24.9595 24.96 19.7335 24.96 13.2595C24.96 6.78553 19.734 1.55953 13.26 1.55953C6.786 1.55953 1.56 6.78553 1.56 13.2595Z" fill="black"/>
<path d="M14.5857 6.7852L8.11173 13.2592L14.5857 19.7332L13.4937 20.8252L5.92773 13.2592L13.4937 5.69319L14.5857 6.7852Z" fill="black"/>
<path d="M7.01953 14.0391L7.01953 12.4791L20.2795 12.4791L20.2795 14.0391L7.01953 14.0391Z" fill="black"/>
</svg>
