<svg width="266" height="194" viewBox="0 0 266 194" fill="none" xmlns="http://www.w3.org/2000/svg">
<g clip-path="url(#clip0_891_16259)">
<path d="M0 178.36H6.9855C12.0097 178.36 15.4566 181.391 15.4566 186.051C15.4566 190.71 12.0097 193.741 6.9855 193.741H0V178.369V178.36ZM6.80189 190.819C9.85649 190.819 11.8512 188.998 11.8512 186.051C11.8512 183.103 9.85649 181.283 6.80189 181.283H3.55535V190.819H6.80189Z" fill="#001B44"/>
<path d="M30.237 190.444H23.1013L21.7409 193.742H18.0938L24.9457 178.369H28.4593L35.328 193.742H31.5974L30.237 190.444ZM29.1187 187.738L26.6817 181.851L24.2447 187.738H29.1187Z" fill="#001B44"/>
<path d="M41.5466 181.258H36.6309V178.36H50.026V181.258H45.1103V193.733H41.5549V181.258H41.5466Z" fill="#001B44"/>
<path d="M63.4792 190.444H56.3435L54.9831 193.742H51.3359L58.1879 178.369H61.7015L68.5702 193.742H64.8396L63.4792 190.444ZM62.3609 187.738L59.9239 181.851L57.4869 187.738H62.3609Z" fill="#001B44"/>
<path d="M79.8203 186.051C79.8203 181.417 83.3757 178.102 88.1662 178.102C90.8202 178.102 93.0402 179.07 94.4924 180.824L92.2056 182.936C91.1707 181.751 89.8771 181.133 88.3415 181.133C85.4621 181.133 83.4257 183.153 83.4257 186.051C83.4257 188.948 85.4705 190.969 88.3415 190.969C89.8771 190.969 91.1707 190.351 92.2056 189.149L94.4924 191.261C93.0402 193.04 90.8285 194.009 88.1495 194.009C83.384 194.009 79.8287 190.694 79.8287 186.059L79.8203 186.051Z" fill="#001B44"/>
<path d="M108.864 193.733L105.901 189.449H102.63V193.733H99.0742V178.36H105.726C109.832 178.36 112.403 180.49 112.403 183.938C112.403 186.243 111.243 187.938 109.24 188.79L112.686 193.733H108.864ZM105.526 181.258H102.63V186.619H105.526C107.696 186.619 108.797 185.608 108.797 183.938C108.797 182.268 107.704 181.258 105.526 181.258Z" fill="#001B44"/>
<path d="M129.311 190.877V193.733H117.41V178.36H129.028V181.216H120.949V184.556H128.085V187.32H120.949V190.877H129.311Z" fill="#001B44"/>
<path d="M144.46 190.444H137.324L135.964 193.742H132.316L139.168 178.369H142.682L149.551 193.742H145.82L144.46 190.444ZM143.341 187.738L140.904 181.851L138.467 187.738H143.341Z" fill="#001B44"/>
<path d="M155.767 181.258H150.852V178.36H164.247V181.258H159.331V193.733H155.776V181.258H155.767Z" fill="#001B44"/>
<path d="M167.168 186.051C167.168 181.483 170.723 178.102 175.581 178.102C180.438 178.102 183.993 181.467 183.993 186.051C183.993 190.635 180.413 194 175.581 194C170.748 194 167.168 190.619 167.168 186.051ZM180.388 186.051C180.388 183.128 178.326 181.133 175.581 181.133C172.835 181.133 170.773 183.128 170.773 186.051C170.773 188.974 172.835 190.969 175.581 190.969C178.326 190.969 180.388 188.974 180.388 186.051Z" fill="#001B44"/>
<path d="M198.657 193.733L195.694 189.449H192.423V193.733H188.867V178.36H195.519C199.625 178.36 202.196 180.49 202.196 183.938C202.196 186.243 201.035 187.938 199.032 188.79L202.479 193.733H198.657ZM195.319 181.258H192.423V186.619H195.319C197.488 186.619 198.59 185.608 198.59 183.938C198.59 182.268 197.488 181.258 195.319 181.258Z" fill="#001B44"/>
<path d="M225.731 190.444H218.595L217.235 193.742H213.588L220.44 178.369H223.953L230.822 193.742H227.092L225.731 190.444ZM224.613 187.738L222.176 181.851L219.739 187.738H224.613Z" fill="#001B44"/>
<path d="M247.948 183.939C247.948 187.362 245.377 189.5 241.271 189.5H238.174V193.742H234.619V178.369H241.271C245.377 178.369 247.948 180.498 247.948 183.947V183.939ZM244.35 183.939C244.35 182.244 243.249 181.258 241.079 181.258H238.183V186.594H241.079C243.249 186.594 244.35 185.609 244.35 183.939Z" fill="#001B44"/>
<path d="M266 183.939C266 187.362 263.43 189.5 259.324 189.5H256.227V193.742H252.672V178.369H259.324C263.43 178.369 266 180.498 266 183.947V183.939ZM262.403 183.939C262.403 182.244 261.302 181.258 259.132 181.258H256.236V186.594H259.132C261.302 186.594 262.403 185.609 262.403 183.939Z" fill="#001B44"/>
<path d="M259.038 106.899H250.409L246.094 99.4256L250.409 91.9521H259.038L263.353 99.4256L259.038 106.899Z" fill="#001B44"/>
<path d="M248.281 101.513V97.3382H215.732L220.665 92.2696C224.362 88.4786 224.278 82.383 220.481 78.7089L204.09 62.7517C200.309 59.0442 194.233 59.1277 190.536 62.9354L185.579 68.0374C183.993 69.6656 181.99 70.7011 179.878 71.0852V65.0647L190.16 54.7773V35.0541L194.901 32.3152V23.6811L187.431 19.3641L179.962 23.6811V32.3152L185.987 35.7973V53.0488L175.705 63.3362V71.0184C174.938 70.8514 174.178 70.6009 173.444 70.2585C170.79 69.0143 168.044 67.8954 165.248 66.9101V45.7006L175.53 35.4132V16.1743L181.113 12.9511V4.31705L173.644 0L166.174 4.31705V12.9511L171.365 15.9489V33.6847L161.083 43.9721V64.9895C158.404 63.0606 156.718 59.9377 156.668 56.5057L156.568 49.3997C156.493 44.0974 152.162 39.8555 146.845 39.9306L134.76 40.0893V91.8187H134.602V130.363L129.219 133.469V142.104L136.688 146.421L144.158 142.104V133.469L138.775 130.363V96.2109C139.317 96.2276 139.851 96.236 140.394 96.2694C142.722 96.4197 145.018 96.7286 147.254 97.1879V111.158L141.871 114.264V122.898L149.341 127.215L156.81 122.898V114.264L151.427 111.158V98.2233C154.791 99.2086 158.02 100.536 161.075 102.148V142.905L155.033 146.396V155.03L162.502 159.347L169.972 155.03V146.396L165.24 143.665V104.62C178.176 113.095 187.223 127.173 188.708 143.323C189.217 148.859 188.842 154.236 187.732 159.347H245.085C245.118 158.979 245.143 158.604 245.143 158.228L244.826 135.348C244.759 130.046 240.403 125.804 235.103 125.879L227.992 125.971C223.469 126.038 219.388 123.232 217.86 118.974C217.585 118.205 217.293 117.437 216.992 116.677H230.07V112.502H215.206C214.756 111.508 214.288 110.523 213.796 109.546C212.511 106.999 212.352 104.11 213.195 101.505H248.273L248.281 101.513ZM183.292 30.3863V25.61L187.423 23.2219L191.554 25.61V30.3863L187.423 32.7745L183.292 30.3863ZM169.496 11.0223V6.24594L173.627 3.85779L177.758 6.24594V11.0223L173.627 13.4104L169.496 11.0223ZM140.811 135.398V140.175L136.68 142.563L132.549 140.175V135.398L136.68 133.01L140.811 135.398ZM153.472 116.193V120.969L149.341 123.357L145.209 120.969V116.193L149.341 113.805L153.472 116.193ZM166.633 148.324V153.101L162.502 155.489L158.371 153.101V148.324L162.502 145.936L166.633 148.324Z" fill="#001B44"/>
<path d="M240.837 122.063H232.207L227.893 114.59L232.207 107.116H240.837L245.152 114.59L240.837 122.063Z" fill="#001B44"/>
<path d="M126.541 4.1748C85.7459 5.26033 48.782 21.6434 21.1738 47.8296L49.1743 75.8361C69.6217 56.7977 96.6707 44.8319 126.541 43.7046V4.1748Z" fill="#CAAA73"/>
<path d="M126.541 52.3057C99.0242 53.4079 74.1451 64.4134 55.25 81.9154L82.2573 108.937C94.1919 98.3236 109.573 91.5599 126.541 90.5245V52.3057Z" fill="#CAAA73"/>
<path d="M126.541 119.274V99.125C111.936 100.127 98.6829 105.955 88.334 115.032L104.091 130.797C109.983 124.743 117.795 120.568 126.55 119.282L126.541 119.274Z" fill="#CAAA73"/>
<path d="M44.4177 80.4541C24.8216 101.138 12.5615 128.802 11.752 159.347H41.3214C42.156 136.985 51.1028 116.744 65.3492 101.413L44.4094 80.4541H44.4177Z" fill="#001B44"/>
<path d="M69.9058 105.964C56.8195 120.11 48.5821 138.747 47.7559 159.339H76.3405C77.1167 146.638 82.1743 135.115 90.1196 126.18L69.9058 105.956V105.964Z" fill="#001B44"/>
<path d="M99.5011 135.574L94.6605 130.739C87.8669 138.497 83.5187 148.408 82.7676 159.347H91.1302C92.3403 150.805 95.2363 142.755 99.5011 135.582V135.574Z" fill="#001B44"/>
</g>
<defs>
<clipPath id="clip0_891_16259">
<rect width="266" height="194" fill="white"/>
</clipPath>
</defs>
</svg>
